<svg width="16" height="17" viewBox="0 0 16 17" fill="none" xmlns="http://www.w3.org/2000/svg">
<path d="M14 8.0102C14 9.07136 11.3137 12.8102 8 12.8102C4.68629 12.8102 2 9.07136 2 8.0102C2 6.94905 4.68629 3.21021 8 3.21021C11.3137 3.21021 14 6.94905 14 8.0102Z" fill="white"/>
<path d="M13.25 8.0102C13.25 8.00665 13.2456 8.07974 13.1799 8.24728C13.1192 8.40188 13.0227 8.59599 12.8875 8.81846C12.6174 9.2631 12.2172 9.78142 11.7169 10.2733C10.6998 11.2731 9.37856 12.0602 8 12.0602V13.5602C9.93515 13.5602 11.6139 12.4779 12.7684 11.343C13.3538 10.7675 13.8324 10.1521 14.1695 9.5973C14.3379 9.32003 14.4771 9.04794 14.5763 8.79496C14.6705 8.55493 14.75 8.27905 14.75 8.0102H13.25ZM8 12.0602C6.62144 12.0602 5.30022 11.2731 4.28313 10.2733C3.78277 9.78142 3.38263 9.2631 3.11249 8.81846C2.97733 8.59599 2.88075 8.40188 2.82012 8.24728C2.75441 8.07974 2.75 8.00665 2.75 8.0102H1.25C1.25 8.27905 1.32954 8.55493 1.42368 8.79496C1.5229 9.04794 1.66208 9.32003 1.83053 9.5973C2.16763 10.1521 2.64616 10.7675 3.23159 11.343C4.38607 12.4779 6.06485 13.5602 8 13.5602V12.0602ZM2.75 8.0102C2.75 8.01376 2.75441 7.94067 2.82012 7.77313C2.88075 7.61853 2.97733 7.42442 3.11249 7.20195C3.38263 6.75731 3.78277 6.23899 4.28313 5.74712C5.30022 4.7473 6.62144 3.96021 8 3.96021V2.46021C6.06485 2.46021 4.38607 3.54254 3.23159 4.67742C2.64616 5.25291 2.16763 5.86827 1.83053 6.42311C1.66208 6.70038 1.5229 6.97247 1.42368 7.22545C1.32954 7.46548 1.25 7.74136 1.25 8.0102H2.75ZM8 3.96021C9.37856 3.96021 10.6998 4.7473 11.7169 5.74712C12.2172 6.23899 12.6174 6.75731 12.8875 7.20195C13.0227 7.42442 13.1192 7.61853 13.1799 7.77313C13.2456 7.94067 13.25 8.01376 13.25 8.0102H14.75C14.75 7.74136 14.6705 7.46548 14.5763 7.22545C14.4771 6.97247 14.3379 6.70038 14.1695 6.42311C13.8324 5.86827 13.3538 5.25291 12.7684 4.67742C11.6139 3.54254 9.93515 2.46021 8 2.46021V3.96021Z" fill="#505567"/>
<path d="M7.99922 9.8102C8.99333 9.8102 9.79922 9.00432 9.79922 8.0102C9.79922 7.01609 8.99333 6.21021 7.99922 6.21021C7.00511 6.21021 6.19922 7.01609 6.19922 8.0102C6.19922 9.00432 7.00511 9.8102 7.99922 9.8102Z" fill="white" stroke="#505567" stroke-width="1.5" stroke-linecap="round" stroke-linejoin="round"/>
</svg>
