<svg width="106" height="18" viewBox="0 0 106 18" fill="none" xmlns="http://www.w3.org/2000/svg">
<path d="M16.7106 0.66745H6.16661C6.11453 0.66745 6.06183 0.68878 6.02513 0.72564C5.98889 0.764225 5.96756 0.814419 5.96866 0.866494L5.98466 2.08947L5.97666 3.28969C5.97666 6.14502 5.91533 8.49889 5.79346 10.2825C5.67347 12.027 5.36635 13.5181 4.88544 14.7148C4.44249 15.8043 3.83046 16.3145 2.95915 16.3145C2.72073 16.3145 2.47573 16.2717 2.22822 16.1926C1.98118 16.1117 1.70669 15.9782 1.38577 15.7851L1.16759 15.6523C1.11912 15.6228 1.06532 15.6131 1.00886 15.6302C0.955526 15.6462 0.912704 15.6822 0.887608 15.733L0.526693 16.477C0.481363 16.567 0.512575 16.6737 0.595392 16.7281L0.763852 16.8396C1.13512 17.0897 1.51015 17.2729 1.87703 17.385C2.24955 17.5008 2.60749 17.559 2.94017 17.559C4.33097 17.559 5.35725 16.8091 5.99078 15.3287C6.56611 13.9784 6.92389 12.3131 7.05502 10.3805C7.18316 8.48368 7.24433 5.90175 7.2401 2.70652L7.23524 1.91003H14.1053L14.1158 17.097C14.1158 17.2067 14.2023 17.2944 14.3125 17.2944H16.7332C16.7853 17.2944 16.8361 17.2747 16.873 17.236C16.9109 17.1987 16.9299 17.1491 16.9299 17.097L16.9073 0.864611C16.9073 0.754971 16.8203 0.66745 16.7106 0.66745" fill="#1B1C40"/>
<path d="M26.7986 14.1297L26.7912 14.5174C26.4678 14.8208 26.1822 15.0702 25.9427 15.2614C25.7319 15.4292 25.4831 15.572 25.1964 15.6866C24.6965 15.8857 23.887 15.9415 23.3112 15.6559C23.0519 15.5302 22.8565 15.3601 22.7082 15.1332C22.5636 14.9188 22.4913 14.6799 22.4877 14.3975C22.4705 13.8049 22.6267 13.3233 22.9655 12.9251C23.3245 12.5041 23.8577 12.1617 24.5531 11.9104C25.1504 11.6947 25.9016 11.5244 26.7949 11.4025L26.7986 14.1297ZM28.9952 7.22761C28.6514 6.5646 28.1257 6.0586 27.4285 5.72215C26.7594 5.39935 25.9121 5.23748 24.9133 5.23748C24.0434 5.23748 23.2395 5.36861 22.5269 5.62961C21.8148 5.88637 21.1336 6.27662 20.4982 6.78702L20.3377 6.91626C20.2604 6.9801 20.2402 7.09037 20.2935 7.17554L20.7489 7.91745C20.7794 7.96717 20.8303 8.00026 20.8903 8.00764C20.9344 8.01924 21.0055 7.99838 21.0502 7.9598L21.2555 7.77173C21.5588 7.50399 21.8884 7.27043 22.2407 7.08048C22.5942 6.89116 22.9809 6.74231 23.392 6.63816C23.7921 6.53339 24.2234 6.48006 24.6712 6.48006C25.4034 6.48006 25.9193 6.70561 26.2442 7.16754C26.5994 7.6737 26.7832 8.42721 26.7912 9.4033V10.1912C25.3092 10.3615 24.0758 10.6128 23.1219 10.9351C22.0183 11.3081 21.1893 11.8027 20.6599 12.4037C20.1061 13.0335 19.839 13.8177 19.8695 14.7411C19.9001 15.3017 20.084 15.806 20.4166 16.2392C20.7354 16.6583 21.1549 16.9868 21.6647 17.2189C22.1673 17.4449 22.718 17.559 23.3019 17.559C23.9042 17.559 24.4606 17.4757 24.9556 17.3096C25.4359 17.1491 25.8765 16.9193 26.2655 16.6277C26.6135 16.3623 27.0105 16.0033 27.4482 15.5572L28.3366 17.1913C28.3708 17.2556 28.4369 17.2944 28.5105 17.2944H29.3125C29.3646 17.2944 29.4149 17.2747 29.4516 17.236C29.4902 17.1987 29.5092 17.1491 29.5092 17.097L29.5012 9.58462C29.494 8.657 29.3236 7.86537 28.9952 7.22761" fill="#1B1C40"/>
<path d="M34.8597 11.805H36.4417C37.0525 11.805 37.566 11.8951 37.9697 12.0727C38.3581 12.2492 38.6382 12.4808 38.8299 12.7848C39.0192 13.0838 39.1155 13.4532 39.1143 13.8858C39.1155 14.6002 38.9108 15.1277 38.4875 15.499C38.0585 15.8795 37.3619 16.073 36.4183 16.073H34.8597V11.805ZM38.428 9.71208C38.2693 9.99018 38.0359 10.201 37.7056 10.356C37.3655 10.5196 36.9268 10.6047 36.4012 10.6047H34.8536L34.8474 6.72077H36.2756C37.1353 6.72077 37.7595 6.89487 38.1321 7.23728C38.5014 7.57733 38.6829 8.04428 38.689 8.65883C38.6817 9.06445 38.594 9.41862 38.428 9.71208V9.71208ZM39.8832 11.1727C39.8832 11.1708 39.8806 11.1708 39.8806 11.1708C39.8403 11.1531 39.7992 11.1366 39.7588 11.1206C40.0027 10.9871 40.219 10.8345 40.407 10.6667C41.0406 10.0882 41.3574 9.38427 41.3475 8.57617C41.3574 7.94249 41.1679 7.37955 40.7851 6.90899C40.418 6.4524 39.8844 6.09712 39.2007 5.85197C38.548 5.61794 37.7435 5.50031 36.8123 5.50031H32.3334C32.2813 5.50031 32.2318 5.51928 32.1949 5.55787C32.1557 5.59473 32.1367 5.64492 32.1367 5.697L32.1485 17.097C32.1485 17.2066 32.2354 17.2943 32.345 17.2943H36.4048C37.5445 17.2943 38.5113 17.1858 39.2741 16.9732C40.086 16.7447 40.7195 16.3819 41.1595 15.8894C41.6201 15.3796 41.8499 14.7258 41.848 13.9494C41.848 13.3332 41.6722 12.7768 41.3205 12.2909C40.9769 11.8241 40.4922 11.4472 39.8832 11.1727" fill="#1B1C40"/>
<path d="M49.4324 10.5619L53.7568 5.83064C53.8088 5.77244 53.8223 5.68963 53.7918 5.61794C53.7587 5.54626 53.6893 5.50031 53.6104 5.50031H52.4444C52.3911 5.50031 52.3365 5.52054 52.2998 5.56163L47.4717 10.7481H46.484V5.697C46.484 5.58673 46.397 5.50031 46.2873 5.50031H43.9584C43.9063 5.50031 43.8561 5.51928 43.8194 5.55787C43.7809 5.59473 43.7617 5.64492 43.7617 5.697L43.7735 17.097C43.7735 17.2066 43.8597 17.2943 43.9702 17.2943H46.2873C46.397 17.2943 46.484 17.2066 46.484 17.097V11.9791L47.3185 11.9882L51.7746 17.2243C51.8115 17.2684 51.8672 17.2943 51.9254 17.2943H54.7727C54.8505 17.2943 54.9197 17.2494 54.9528 17.1796C54.9859 17.1086 54.9743 17.0276 54.9241 16.9677L49.4324 10.5619" fill="#1B1C40"/>
<path d="M62.5634 14.131L62.5584 14.5157C62.2436 14.8134 61.9495 15.0702 61.7098 15.2614C61.499 15.4317 61.2479 15.572 60.9624 15.6866C60.4611 15.8857 59.6555 15.9415 59.0764 15.6559C58.8192 15.5302 58.6225 15.3601 58.473 15.1332C58.3284 14.9188 58.2573 14.6799 58.2529 14.3975C58.2358 13.8061 58.3927 13.3252 58.7327 12.9251C59.0918 12.5041 59.6248 12.1617 60.3202 11.9104C60.9175 11.6947 61.6689 11.5227 62.5596 11.4025L62.5634 14.131ZM64.761 7.22761C64.4174 6.56287 63.8892 6.05609 63.1938 5.72215C62.5265 5.39935 61.6805 5.23748 60.6805 5.23748C59.8086 5.23748 59.0047 5.36861 58.294 5.62961C57.5821 5.88637 56.8982 6.27662 56.2611 6.78827L56.1023 6.91814C56.0277 6.9801 56.0075 7.09037 56.0595 7.17303L56.5141 7.91509C56.5453 7.96591 56.595 8.00026 56.6532 8.00764C56.7114 8.01924 56.7715 7.99838 56.813 7.9598L57.0226 7.77173C57.3272 7.49959 57.6599 7.26808 58.0073 7.08048C58.3615 6.89116 58.748 6.74231 59.1592 6.63816C59.5575 6.53339 59.9882 6.48006 60.4385 6.48006C61.1707 6.48006 61.6866 6.70561 62.0113 7.16754C62.3667 7.6737 62.5505 8.42721 62.5584 9.4033V10.1912C61.0763 10.3615 59.8417 10.6128 58.8865 10.9351C57.7855 11.3081 56.9566 11.8027 56.4253 12.4037C55.8726 13.0335 55.6061 13.8177 55.6349 14.7411C55.6674 15.3017 55.8512 15.806 56.1814 16.2392C56.5006 16.6583 56.9222 16.9868 57.432 17.2189C57.9325 17.4449 58.4834 17.559 59.069 17.559C59.6713 17.559 60.2277 17.4757 60.7221 17.3096C61.1994 17.1491 61.64 16.9212 62.0328 16.6277C62.3819 16.3605 62.7802 16.0014 63.2146 15.5572L64.1037 17.1913C64.138 17.2556 64.2042 17.2944 64.2776 17.2944H65.0798C65.1318 17.2944 65.182 17.2747 65.2187 17.236C65.2573 17.1987 65.2764 17.1491 65.2764 17.097L65.2684 9.58462C65.2611 8.65888 65.0907 7.86663 64.761 7.22761" fill="#1B1C40"/>
<path d="M83.3167 2.5631V2.56059C82.7525 1.95279 82.0014 1.4791 81.0866 1.15442C80.1883 0.829734 79.1351 0.667393 77.9568 0.667393H73.084C73.032 0.667393 72.9818 0.686997 72.9449 0.725583C72.9063 0.762286 72.8867 0.812479 72.8867 0.864554L72.9101 17.097C72.9101 17.2066 72.9995 17.2943 73.1073 17.2943H75.5281C75.5802 17.2943 75.6304 17.2747 75.6672 17.2359C75.7058 17.1986 75.7248 17.149 75.7248 17.097L75.7155 1.90997H77.509C78.2296 1.90997 78.8827 2.03185 79.4488 2.27136C80.007 2.50726 80.4664 2.84371 80.8151 3.27191C81.1644 3.69714 81.3959 4.20879 81.5062 4.79259C81.6337 5.45748 81.6042 6.1743 81.4254 6.91997C81.2513 7.62941 80.8518 8.25133 80.2349 8.7727C79.6265 9.2831 78.7417 9.54174 77.6051 9.54174H76.2327C76.1604 9.54174 76.0954 9.58096 76.0587 9.64276C76.0238 9.7066 76.0256 9.78377 76.0642 9.84384L76.5881 10.6838C76.6248 10.742 76.6887 10.7763 76.7559 10.7763H77.8374C79.559 10.7763 80.9572 10.4656 81.9953 9.84996C83.0509 9.22679 83.7689 8.43892 84.1305 7.50503C84.4895 6.59152 84.5821 5.65904 84.4111 4.73142C84.2536 3.91155 83.8866 3.18125 83.3167 2.5631" fill="#1B1C40"/>
<path d="M90.6014 16.336C90.1389 16.336 89.7467 16.2006 89.4012 15.92C89.0262 15.6154 88.7291 15.2283 88.4968 14.7337C88.2512 14.2197 88.0679 13.6402 87.9503 13.0145C87.7658 12.0403 87.7433 11.0159 87.8841 9.96938C88.0171 8.94686 88.3228 8.08104 88.786 7.39984C89.2112 6.7809 89.7448 6.48006 90.4207 6.48006C90.8753 6.48006 91.2785 6.61856 91.6173 6.89116C91.9905 7.19452 92.2968 7.59402 92.5327 8.08543C92.7839 8.60132 92.9677 9.17477 93.0811 9.78931C93.2649 10.7519 93.2864 11.7738 93.1473 12.8308C93.0136 13.8607 92.7092 14.7301 92.2448 15.4121C91.8238 16.0328 91.2847 16.336 90.6014 16.336V16.336ZM94.9057 7.59276C94.4082 6.86607 93.7692 6.28838 93.0107 5.87477C92.2496 5.45989 91.393 5.24924 90.4679 5.24924C89.3356 5.24924 88.3001 5.60451 87.3878 6.30611C86.4853 6.9972 85.8145 7.93768 85.396 9.10121C84.9781 10.2611 84.8911 11.5092 85.1343 12.8136C85.3034 13.6946 85.6319 14.5016 86.1128 15.211C86.6036 15.9316 87.2348 16.5076 87.9883 16.9236C88.7535 17.3445 89.6211 17.559 90.5647 17.559C91.6903 17.559 92.7227 17.2031 93.6326 16.4983C94.5349 15.806 95.2089 14.8693 95.6318 13.7136C96.0526 12.5661 96.1416 11.3144 95.8964 9.99024C95.7279 9.11281 95.3959 8.30722 94.9057 7.59276Z" fill="#1B1C40"/>
<path d="M105.426 12.0929C105.052 11.6059 104.514 11.2248 103.835 10.9638C103.794 10.9486 103.754 10.9332 103.716 10.9178C104.285 10.6281 104.726 10.2623 105.029 9.83209C105.363 9.35479 105.532 8.83467 105.529 8.28632C105.529 7.68275 105.344 7.14491 104.979 6.68408C104.626 6.23376 104.116 5.88445 103.47 5.64493C102.287 5.20434 100.839 5.17924 99.3913 5.56165C98.7325 5.73748 98.1015 5.97511 97.5145 6.27046L97.3037 6.37712C97.2559 6.40033 97.2204 6.4408 97.2057 6.49115C97.1886 6.54322 97.1916 6.59765 97.2173 6.64361L97.5757 7.33721C97.6248 7.43398 97.7418 7.47445 97.8398 7.42426L98.0401 7.32623C98.6161 7.05111 99.1626 6.8403 99.6651 6.7018C100.715 6.41147 101.568 6.41759 102.073 6.70556C102.318 6.84516 102.495 7.03213 102.624 7.30113C102.764 7.575 102.83 7.91866 102.827 8.3249C102.832 8.76722 102.729 9.14963 102.519 9.46459C102.305 9.78927 101.993 10.0387 101.566 10.2303C101.114 10.4325 100.571 10.5502 99.961 10.5822H99.7374C99.6302 10.5822 99.5425 10.6642 99.5395 10.7708L99.5199 11.3485L99.5671 11.5882C99.5855 11.6806 99.6651 11.748 99.7607 11.748L100.001 11.7505C100.741 11.7567 101.375 11.8724 101.885 12.0967C102.37 12.305 102.735 12.5869 102.973 12.933C103.205 13.2731 103.325 13.675 103.325 14.1253C103.325 14.5543 103.234 14.923 103.051 15.2515C102.869 15.5744 102.612 15.8238 102.26 16.0125C101.58 16.3703 100.493 16.3973 99.273 16.092C98.7184 15.9531 98.1504 15.7387 97.5807 15.458L97.3767 15.3581C97.2866 15.3134 97.1659 15.3501 97.115 15.445L96.7474 16.1498C96.6966 16.2472 96.7333 16.3665 96.8332 16.4169L97.0396 16.5253C97.5666 16.7936 98.178 17.0234 98.8594 17.2047C99.5414 17.3806 100.235 17.4701 100.92 17.4701C101.87 17.4701 102.725 17.3359 103.465 17.0736C104.241 16.7979 104.859 16.3918 105.3 15.866C105.769 15.317 106.006 14.6664 106 13.9317C106.008 13.213 105.815 12.593 105.426 12.0929" fill="#1B1C40"/>
</svg>
