<svg width="14" height="14" viewBox="0 0 14 14" fill="none" xmlns="http://www.w3.org/2000/svg">
<path fill-rule="evenodd" clip-rule="evenodd" d="M8.54018 4.09753L6.99935 1.16837L5.45852 4.09753C5.34966 4.31158 5.19211 4.49711 4.99852 4.6392C4.80398 4.78201 4.57888 4.87759 4.34102 4.91837L1.16602 5.54087L3.38268 8.1917C3.68583 8.52394 3.82887 8.97193 3.77435 9.41837L3.35268 12.835L6.27602 11.4184C6.50153 11.3091 6.74878 11.2522 6.99935 11.2517C7.23445 11.2524 7.46594 11.3096 7.67435 11.4184L10.666 12.7475L10.2444 9.3717C10.1911 8.92625 10.3343 8.47966 10.6369 8.14837L12.8327 5.54087L9.65768 4.91837C9.41953 4.87772 9.19413 4.78213 8.99935 4.6392C8.80606 4.49701 8.6488 4.31149 8.54018 4.09753Z" fill="#0093A2" stroke="#0093A2" stroke-width="1.5" stroke-linecap="round" stroke-linejoin="round"/>
</svg>
