<svg width="32" height="32" viewBox="0 0 32 32" fill="none" xmlns="http://www.w3.org/2000/svg">
<rect width="32" height="32" rx="16" fill="#FF0000"/>
<path fill-rule="evenodd" clip-rule="evenodd" d="M22.2602 10.7411C22.9456 10.9256 23.4859 11.466 23.6704 12.1513C24.0131 13.4034 23.9999 16.0129 23.9999 16.0129C23.9999 16.0129 23.9999 18.6093 23.6704 19.8613C23.4859 20.5467 22.9456 21.087 22.2602 21.2715C21.0082 21.601 16 21.601 16 21.601C16 21.601 11.0049 21.601 9.7397 21.2584C9.05436 21.0738 8.514 20.5335 8.32949 19.8482C8 18.6093 8 15.9997 8 15.9997C8 15.9997 8 13.4034 8.32949 12.1513C8.514 11.466 9.06754 10.9124 9.7397 10.7279C10.9918 10.3984 16 10.3984 16 10.3984C16 10.3984 21.0082 10.3984 22.2602 10.7411ZM18.571 16.0002L14.4062 18.3989V13.6016L18.571 16.0002Z" fill="white"/>
</svg>
